<svg width="48" height="48" viewBox="0 0 48 48" fill="none" xmlns="http://www.w3.org/2000/svg">
<circle cx="24" cy="24" r="24" fill="#C03A2B"/>
<path d="M35.0118 19.7796L37.9762 20.785L40.4848 18.9128L40.4457 22.0433L43 23.8503L40.0116 24.7793L39.0831 27.7687L37.2756 25.2134L34.1451 25.2525L36.0173 22.7439L35.0118 19.7796Z" fill="white"/>
<path d="M26.1965 33.4584C28.7098 33.4584 31.1222 32.4704 32.9137 30.7072C29.8068 36.1783 23.4043 38.8705 17.3208 37.2635C11.2378 35.6565 7 30.1543 7 23.8622C7 17.5707 11.2378 12.0679 17.3208 10.461C23.4043 8.85398 29.8063 11.5461 32.9137 17.0172C29.8224 13.9835 25.0816 13.3975 21.3444 15.5872C17.6072 17.7764 15.8007 22.1986 16.9354 26.3784C18.0705 30.5582 21.8653 33.4593 26.1965 33.4584Z" fill="white"/>
</svg>
